<svg data-v-fde0c5aa="" xmlns="http://www.w3.org/2000/svg" viewBox="0 0 300 300" class="iconLeft"><!----><defs data-v-fde0c5aa=""><!----></defs><rect data-v-fde0c5aa="" fill="transparent" x="0" y="0" width="300px" height="300px" class="logo-background-square"></rect><defs data-v-fde0c5aa=""><!----></defs><g data-v-fde0c5aa="" id="4738f017-3884-4563-8ca9-b603da94da09" fill="#000000" transform="matrix(4.951378391446118,0,0,4.951378391446118,108.47190389763068,109.79456838647587)"><path d="M1.24 3.71L0.23 4.35L0.31 4.54L0.31 4.54Q0.63 4.23 0.75 5.67L0.75 5.67L0.71 11.19L0.71 11.19Q0.72 12.36 1.28 12.71L1.28 12.71L2.13 12.01L2.13 12.01Q2.62 11.62 3.20 12.12L3.20 12.12L3.20 12.12Q3.77 12.63 4.32 12.73L4.32 12.73L5.28 11.76L5.14 11.61L5.14 11.61Q4.89 11.81 4.69 11.71L4.69 11.71L4.69 11.71Q4.50 11.62 4.09 11.25L4.09 11.25L4.09 11.25Q3.68 10.88 3.07 10.96L3.07 10.96L1.96 11.56L1.96 11.56Q1.85 11.14 1.86 10.73L1.86 10.73L1.85 5.20L1.85 5.20Q1.84 3.99 1.24 3.71L1.24 3.71ZM6.56 3.68L5.82 4.38L5.82 4.38Q6.37 4.68 6.49 5.35L6.49 5.35L6.49 5.35Q7.50 4.81 7.28 4.32L7.28 4.32L7.28 4.32Q7.05 3.83 6.56 3.68L6.56 3.68ZM5.98 7.41L5.98 7.41Q6.31 7.39 6.23 9.19L6.23 9.19L6.23 9.19Q6.19 11.33 6.24 11.84L6.24 11.84L6.24 11.84Q6.29 12.35 6.85 12.68L6.85 12.68L7.65 11.84L7.65 11.84Q7.21 11.73 7.26 10.31L7.26 10.31L7.26 10.31Q7.28 7.65 7.26 7.25L7.26 7.25L7.26 7.25Q7.25 6.85 6.89 6.45L6.89 6.45L5.87 7.22L5.98 7.41ZM13.66 7.75L13.69 8.42L13.69 8.42Q14.51 7.22 15.52 7.23L15.52 7.23L15.52 7.23Q16.53 7.23 16.42 8.74L16.42 8.74L16.42 8.74Q16.40 11.40 16.45 11.89L16.45 11.89L16.45 11.89Q16.50 12.39 17.08 12.74L17.08 12.74L18.18 11.93L18.11 11.77L18.11 11.77Q17.42 12.26 17.45 10.05L17.45 10.05L17.45 10.05Q17.49 7.83 17.36 7.37L17.36 7.37L17.36 7.37Q17.23 6.90 16.50 6.60L16.50 6.60L16.50 6.60Q15.78 6.29 15.14 6.64L15.14 6.64L15.14 6.64Q14.51 6.99 14.23 7.22L14.23 7.22L14.23 7.22Q13.95 7.44 13.66 7.75L13.66 7.75ZM9.65 6.55L8.35 7.42L8.43 7.57L8.43 7.57Q9.06 7.20 9.07 8.48L9.07 8.48L9.07 8.48Q9.00 11.45 9.09 11.91L9.09 11.91L9.09 11.91Q9.18 12.37 9.75 12.71L9.75 12.71L10.82 12.00L10.82 11.84L10.82 11.84Q10.25 11.92 10.17 11.07L10.17 11.07L10.17 11.07Q10.09 10.23 10.17 8.33L10.17 8.33L10.17 8.33Q10.89 7.22 11.90 7.23L11.90 7.23L11.90 7.23Q12.91 7.23 12.80 8.74L12.80 8.74L12.80 8.74Q12.78 11.40 12.82 11.89L12.82 11.89L12.82 11.89Q12.87 12.39 13.45 12.74L13.45 12.74L14.56 11.93L14.49 11.77L14.49 11.77Q13.79 12.26 13.83 10.05L13.83 10.05L13.83 10.05Q13.86 7.83 13.73 7.37L13.73 7.37L13.73 7.37Q13.60 6.90 12.88 6.60L12.88 6.60L12.88 6.60Q12.15 6.29 11.52 6.64L11.52 6.64L11.52 6.64Q10.88 6.99 10.60 7.22L10.60 7.22L10.60 7.22Q10.32 7.44 10.14 7.66L10.14 7.66L10.14 7.66Q10.20 6.81 9.65 6.55L9.65 6.55ZM19.54 3.49L18.59 4.20L18.59 4.20Q19.02 4.68 18.92 7.22L18.92 7.22L18.92 7.22Q18.81 9.76 18.86 10.65L18.86 10.65L18.86 10.65Q18.91 11.55 20.07 12.25L20.07 12.25L20.07 12.25Q21.23 12.96 22.10 12.54L22.10 12.54L22.10 12.54Q22.97 12.13 23.58 11.45L23.58 11.45L23.58 11.45Q24.19 10.77 24.36 9.68L24.36 9.68L24.36 9.68Q24.53 8.60 23.92 7.72L23.92 7.72L23.92 7.72Q23.32 6.84 22.38 6.66L22.38 6.66L22.38 6.66Q21.45 6.48 19.91 7.49L19.91 7.49L19.91 7.49Q20.06 4.43 19.87 3.98L19.87 3.98L19.87 3.98Q19.67 3.52 19.54 3.49L19.54 3.49ZM20.95 7.42L20.95 7.42L20.95 7.42Q21.71 7.31 22.41 7.86L22.41 7.86L22.41 7.86Q23.11 8.40 23.27 9.35L23.27 9.35L23.27 9.35Q23.43 10.29 23.13 11.10L23.13 11.10L23.13 11.10Q22.83 11.91 22.15 11.91L22.15 11.91L22.15 11.91Q21.47 11.91 21.05 11.72L21.05 11.72L21.05 11.72Q20.64 11.53 20.20 11.05L20.20 11.05L20.20 11.05Q19.77 10.56 19.93 8.14L19.93 8.14L19.93 8.14Q20.19 7.52 20.95 7.42ZM27.57 6.45L27.57 6.45Q26.42 7.21 25.95 7.77L25.95 7.77L25.95 7.77Q25.47 8.33 25.28 8.89L25.28 8.89L25.28 8.89Q25.09 9.46 25.21 10.32L25.21 10.32L25.21 10.32Q25.34 11.17 26.21 11.96L26.21 11.96L26.21 11.96Q27.08 12.75 27.60 12.75L27.60 12.75L27.60 12.75Q28.12 12.76 29.23 11.73L29.23 11.73L29.23 11.73Q29.66 11.34 30.05 10.82L30.05 10.82L30.05 10.82Q30.45 10.31 30.56 9.74L30.56 9.74L30.56 9.74Q30.67 9.17 30.50 8.50L30.50 8.50L30.50 8.50Q30.32 7.83 29.52 7.04L29.52 7.04L29.52 7.04Q28.71 6.25 27.57 6.45L27.57 6.45ZM27.21 7.26L27.21 7.26L27.21 7.26Q27.99 7.08 28.93 8.24L28.93 8.24L28.93 8.24Q29.87 9.41 29.67 10.23L29.67 10.23L29.67 10.23Q29.47 11.06 28.81 11.56L28.81 11.56L28.81 11.56Q28.16 12.05 27.42 11.45L27.42 11.45L27.42 11.45Q26.68 10.84 26.24 10.15L26.24 10.15L26.24 10.15Q25.81 9.46 26.11 8.45L26.11 8.45L26.11 8.45Q26.42 7.43 27.21 7.26Z"></path></g><defs data-v-fde0c5aa=""><!----></defs><g data-v-fde0c5aa="" id="871c5c64-891f-4516-872f-d76c241aa8a9" stroke="none" fill="#0076DD" transform="matrix(2.1492300918897334,0,0,2.1492300918897334,33.9176790039253,115.61231852976427)"><path d="M2.83 18.247l26.34-9.124L2.83 0zM29.17 32V13.753L2.83 22.877z"></path></g><!----></svg>