<svg data-v-fde0c5aa="" xmlns="http://www.w3.org/2000/svg" viewBox="0 0 300 300" class="iconLeft"><!----><defs data-v-fde0c5aa=""><!----></defs><rect data-v-fde0c5aa="" fill="#FFFFFF" x="0" y="0" width="300px" height="300px" class="logo-background-square"></rect><defs data-v-fde0c5aa=""><!----></defs><g data-v-fde0c5aa="" id="226dbcb9-481b-4f93-96fe-9e2d9e3e5ea8" fill="#3E261A" transform="matrix(2.173523411260592,0,0,2.173523411260592,93.09513525937902,121.18994797141757)"><path d="M0.80 15.25L0.80 15.25Q2.13 15.64 3.60 15.64L3.60 15.64L3.60 15.64Q4.31 15.64 4.96 15.55L4.96 15.55L4.96 13.86L3.67 13.75L3.67 13.75Q2.48 13.65 1.83 13.38L1.83 13.38L1.83 13.38Q1.18 13.12 0.90 12.59L0.90 12.59L0.90 12.59Q0.62 12.07 0.62 11.14L0.62 11.14L0.62 11.14Q0.62 10.05 0.92 9.42L0.92 9.42L0.92 9.42Q1.22 8.79 1.88 8.51L1.88 8.51L1.88 8.51Q2.53 8.22 3.68 8.22L3.68 8.22L3.68 8.22Q5.24 8.22 6.75 8.55L6.75 8.55L6.48 10.22L6.48 10.22Q5.81 10.08 5.26 10.03L5.26 10.03L5.26 10.03Q4.72 9.98 4.06 9.98L4.06 9.98L4.06 9.98Q3.35 9.98 2.87 10.05L2.87 10.05L2.87 11.76L4.16 11.86L4.16 11.86Q5.29 11.96 5.96 12.25L5.96 12.25L5.96 12.25Q6.62 12.54 6.92 13.11L6.92 13.11L6.92 13.11Q7.21 13.68 7.21 14.60L7.21 14.60L7.21 14.60Q7.21 15.61 6.86 16.22L6.86 16.22L6.86 16.22Q6.51 16.83 5.75 17.11L5.75 17.11L5.75 17.11Q5.00 17.39 3.74 17.39L3.74 17.39L3.74 17.39Q1.96 17.39 0.50 16.97L0.50 16.97L0.80 15.25ZM12.40 10.01L12.40 10.01Q13.45 10.01 14.06 10.35L14.06 10.35L14.06 10.35Q14.66 10.70 14.92 11.49L14.92 11.49L14.92 11.49Q15.18 12.28 15.18 13.68L15.18 13.68L15.18 13.68Q15.18 15.08 14.91 15.88L14.91 15.88L14.91 15.88Q14.64 16.69 14.05 17.04L14.05 17.04L14.05 17.04Q13.45 17.39 12.40 17.39L12.40 17.39L12.40 17.39Q11.31 17.39 10.72 17.09L10.72 17.09L10.72 19.39L8.64 19.57L8.64 10.18L9.65 10.18L10.07 10.82L10.07 10.82Q10.40 10.39 10.96 10.20L10.96 10.20L10.96 10.20Q11.52 10.01 12.40 10.01L12.40 10.01ZM12.94 15.40L12.94 11.62L11.33 11.62L11.33 11.62Q10.98 11.62 10.85 11.69L10.85 11.69L10.85 11.69Q10.72 11.76 10.72 11.96L10.72 11.96L10.72 15.78L12.35 15.78L12.35 15.78Q12.70 15.78 12.82 15.70L12.82 15.70L12.82 15.70Q12.94 15.62 12.94 15.40L12.94 15.40ZM19.91 15.79L19.91 15.79Q20.97 15.79 22.36 15.44L22.36 15.44L22.62 16.90L22.62 16.90Q21.35 17.35 19.64 17.35L19.64 17.35L19.64 17.35Q18.45 17.35 17.76 17.00L17.76 17.00L17.76 17.00Q17.07 16.65 16.75 15.85L16.75 15.85L16.75 15.85Q16.44 15.05 16.44 13.68L16.44 13.68L16.44 13.68Q16.44 12.33 16.77 11.54L16.77 11.54L16.77 11.54Q17.09 10.74 17.82 10.37L17.82 10.37L17.82 10.37Q18.54 10.01 19.75 10.01L19.75 10.01L19.75 10.01Q20.96 10.01 21.61 10.21L21.61 10.21L21.61 10.21Q22.26 10.40 22.53 10.88L22.53 10.88L22.53 10.88Q22.81 11.35 22.81 12.24L22.81 12.24L22.81 12.24Q22.81 13.17 22.46 13.65L22.46 13.65L22.46 13.65Q22.12 14.13 21.25 14.32L21.25 14.32L21.25 14.32Q20.38 14.50 18.66 14.50L18.66 14.50L18.66 15.68L18.66 15.68Q19.10 15.79 19.91 15.79L19.91 15.79ZM19.73 11.58L19.73 11.58Q19.11 11.58 18.89 11.73L18.89 11.73L18.89 11.73Q18.66 11.87 18.66 12.26L18.66 12.26L18.66 13.36L19.85 13.36L19.85 13.36Q20.47 13.36 20.70 13.21L20.70 13.21L20.70 13.21Q20.93 13.06 20.93 12.66L20.93 12.66L20.93 11.58L19.73 11.58ZM27.68 15.79L27.68 15.79Q28.74 15.79 30.13 15.44L30.13 15.44L30.39 16.90L30.39 16.90Q29.12 17.35 27.41 17.35L27.41 17.35L27.41 17.35Q26.22 17.35 25.53 17.00L25.53 17.00L25.53 17.00Q24.84 16.65 24.52 15.85L24.52 15.85L24.52 15.85Q24.21 15.05 24.21 13.68L24.21 13.68L24.21 13.68Q24.21 12.33 24.54 11.54L24.54 11.54L24.54 11.54Q24.86 10.74 25.59 10.37L25.59 10.37L25.59 10.37Q26.31 10.01 27.52 10.01L27.52 10.01L27.52 10.01Q28.73 10.01 29.38 10.21L29.38 10.21L29.38 10.21Q30.03 10.40 30.30 10.88L30.30 10.88L30.30 10.88Q30.58 11.35 30.58 12.24L30.58 12.24L30.58 12.24Q30.58 13.17 30.23 13.65L30.23 13.65L30.23 13.65Q29.89 14.13 29.02 14.32L29.02 14.32L29.02 14.32Q28.15 14.50 26.43 14.50L26.43 14.50L26.43 15.68L26.43 15.68Q26.87 15.79 27.68 15.79L27.68 15.79ZM27.50 11.58L27.50 11.58Q26.88 11.58 26.66 11.73L26.66 11.73L26.66 11.73Q26.43 11.87 26.43 12.26L26.43 12.26L26.43 13.36L27.62 13.36L27.62 13.36Q28.24 13.36 28.47 13.21L28.47 13.21L28.47 13.21Q28.70 13.06 28.70 12.66L28.70 12.66L28.70 11.58L27.50 11.58ZM36.41 7.97L38.50 7.78L38.50 17.18L37.49 17.18L37.09 16.55L37.09 16.55Q36.75 17.00 36.21 17.19L36.21 17.19L36.21 17.19Q35.67 17.39 34.83 17.39L34.83 17.39L34.83 17.39Q33.74 17.39 33.13 17.05L33.13 17.05L33.13 17.05Q32.52 16.70 32.25 15.90L32.25 15.90L32.25 15.90Q31.98 15.11 31.98 13.68L31.98 13.68L31.98 13.68Q31.98 12.29 32.23 11.50L32.23 11.50L32.23 11.50Q32.49 10.71 33.08 10.36L33.08 10.36L33.08 10.36Q33.67 10.01 34.69 10.01L34.69 10.01L34.69 10.01Q35.80 10.01 36.41 10.29L36.41 10.29L36.41 7.97ZM35.83 15.78L35.83 15.78Q36.18 15.78 36.30 15.70L36.30 15.70L36.30 15.70Q36.41 15.62 36.41 15.40L36.41 15.40L36.41 11.62L34.80 11.62L34.80 11.62Q34.45 11.62 34.33 11.70L34.33 11.70L34.33 11.70Q34.20 11.77 34.20 11.98L34.20 11.98L34.20 15.78L35.83 15.78ZM45.86 12.77L45.86 12.77Q46.48 12.95 46.84 13.48L46.84 13.48L46.84 13.48Q47.21 14.01 47.21 14.71L47.21 14.71L47.21 14.71Q47.21 15.90 46.54 16.54L46.54 16.54L46.54 16.54Q45.86 17.18 44.60 17.18L44.60 17.18L40.47 17.18L40.47 8.43L44.14 8.43L44.14 8.43Q45.51 8.43 46.14 8.97L46.14 8.97L46.14 8.97Q46.77 9.51 46.77 10.67L46.77 10.67L46.77 10.67Q46.77 11.37 46.54 11.89L46.54 11.89L46.54 11.89Q46.31 12.40 45.86 12.68L45.86 12.68L45.86 12.77ZM44.70 10.99L44.70 10.99Q44.70 10.39 44.52 10.16L44.52 10.16L44.52 10.16Q44.34 9.94 43.85 9.94L43.85 9.94L42.57 9.94L42.57 12.03L43.83 12.03L43.83 12.03Q44.32 12.03 44.51 11.80L44.51 11.80L44.51 11.80Q44.70 11.58 44.70 10.99L44.70 10.99ZM44.20 15.67L44.20 15.67Q44.69 15.67 44.89 15.41L44.89 15.41L44.89 15.41Q45.09 15.15 45.09 14.53L45.09 14.53L45.09 14.53Q45.09 13.96 44.90 13.72L44.90 13.72L44.90 13.72Q44.70 13.48 44.21 13.48L44.21 13.48L42.57 13.48L42.57 15.67L44.20 15.67ZM49.71 10.18L50.34 11.20L50.34 11.20Q51.32 10.25 52.33 9.97L52.33 9.97L52.49 12.00L52.49 12.00Q52.09 12.08 51.58 12.30L51.58 12.30L51.58 12.30Q51.06 12.52 50.78 12.73L50.78 12.73L50.78 17.18L48.69 17.18L48.69 10.18L49.71 10.18ZM53.51 17.18L53.51 17.18ZM53.62 10.40L55.71 10.12L55.71 17.18L53.62 17.18L53.62 10.40ZM54.68 9.27L54.68 9.27Q54.00 9.27 53.75 9.03L53.75 9.03L53.75 9.03Q53.51 8.79 53.51 8.12L53.51 8.12L53.51 8.12Q53.51 7.43 53.75 7.19L53.75 7.19L53.75 7.19Q54.00 6.94 54.68 6.94L54.68 6.94L54.68 6.94Q55.34 6.94 55.59 7.19L55.59 7.19L55.59 7.19Q55.83 7.43 55.83 8.12L55.83 8.12L55.83 8.12Q55.83 8.79 55.59 9.03L55.59 9.03L55.59 9.03Q55.36 9.27 54.68 9.27L54.68 9.27ZM60.69 15.82L60.69 15.82Q61.80 15.96 62.36 16.15L62.36 16.15L62.36 16.15Q62.92 16.34 63.14 16.67L63.14 16.67L63.14 16.67Q63.36 17.00 63.36 17.60L63.36 17.60L63.36 17.60Q63.36 18.65 62.66 19.10L62.66 19.10L62.66 19.10Q61.96 19.56 60.37 19.56L60.37 19.56L60.37 19.56Q58.66 19.56 57.32 19.11L57.32 19.11L57.57 17.63L57.57 17.63Q58.88 17.98 59.96 17.98L59.96 17.98L59.96 17.98Q60.80 17.98 61.49 17.85L61.49 17.85L61.49 17.08L61.49 17.08Q60.12 16.98 59.53 16.84L59.53 16.84L59.53 16.84Q58.94 16.69 58.94 16.44L58.94 16.44L59.35 15.11L59.35 15.11Q58.20 14.97 57.69 14.36L57.69 14.36L57.69 14.36Q57.19 13.76 57.19 12.56L57.19 12.56L57.19 12.56Q57.19 11.62 57.49 11.05L57.49 11.05L57.49 11.05Q57.79 10.49 58.46 10.23L58.46 10.23L58.46 10.23Q59.12 9.97 60.23 9.97L60.23 9.97L60.23 9.97Q61.12 9.97 61.74 10.14L61.74 10.14L62.85 9.28L63.85 10.26L63.07 11.24L63.07 11.24Q63.28 11.76 63.28 12.56L63.28 12.56L63.28 12.56Q63.28 13.86 62.69 14.46L62.69 14.46L62.69 14.46Q62.10 15.05 60.75 15.13L60.75 15.13L60.69 15.82ZM59.21 11.80L59.21 13.99L60.52 13.99L60.52 13.99Q60.94 13.99 61.11 13.84L61.11 13.84L61.11 13.84Q61.28 13.69 61.28 13.33L61.28 13.33L61.28 11.14L59.95 11.14L59.95 11.14Q59.53 11.14 59.37 11.28L59.37 11.28L59.37 11.28Q59.21 11.42 59.21 11.80L59.21 11.80ZM65.06 17.18L65.06 8.02L67.10 7.87L67.10 10.54L67.10 10.54Q67.98 10.01 69.31 10.01L69.31 10.01L69.31 10.01Q70.29 10.01 70.83 10.37L70.83 10.37L70.83 10.37Q71.36 10.72 71.36 11.40L71.36 11.40L71.36 17.18L69.27 17.18L69.27 11.72L68.22 11.72L68.22 11.72Q67.61 11.72 67.38 11.87L67.38 11.87L67.38 11.87Q67.14 12.01 67.14 12.42L67.14 12.42L67.14 17.18L65.06 17.18ZM76.79 11.55L75.68 11.55L75.68 15.67L75.68 15.67Q76.12 15.74 76.59 15.75L76.59 15.75L76.50 17.16L76.50 17.16Q75.60 17.35 75.01 17.35L75.01 17.35L75.01 17.35Q74.28 17.35 73.94 17.04L73.94 17.04L73.94 17.04Q73.60 16.73 73.60 16.07L73.60 16.07L73.60 11.55L72.76 11.55L72.76 10.18L73.60 10.18L73.60 8.86L75.68 8.34L75.68 10.18L76.79 10.18L76.79 11.55Z"></path></g><defs data-v-fde0c5aa=""><!----></defs><g data-v-fde0c5aa="" id="82fdc260-10e0-4c74-9013-dffbeba9d1a6" stroke="none" fill="#C5194B" transform="matrix(0.44602897555652055,0,0,0.44602897555652055,38.28729109610058,127.69854973339164)"><path d="M53.88 25.92L51 43.46l12.36.54h.38a3.26 3.26 0 0 1 2.35 1.7 3.21 3.21 0 0 1 0 2.9L50.61 78.3a2.39 2.39 0 0 1-4.49-1.47L49 59.26l-12.37-.57h-.38a3.26 3.26 0 0 1-2.34-1.7 3.22 3.22 0 0 1 0-2.9l15.46-29.65a2.41 2.41 0 0 1 4.51 1.48zM50 3.84a4.76 4.76 0 1 0 0 9.53A36.67 36.67 0 0 1 86.64 50a4.76 4.76 0 0 0 9.53 0A46.21 46.21 0 0 0 50 3.84zm-4.83 87.55a4.76 4.76 0 0 0 4.75 4.77 4.76 4.76 0 1 0-4.76-4.77zM8.6 54.73A4.76 4.76 0 1 0 3.84 50a4.76 4.76 0 0 0 4.76 4.73zm18.26 35.22a4.76 4.76 0 1 0-1.73-6.51 4.78 4.78 0 0 0 1.73 6.51zm-1.67-73.42A4.76 4.76 0 1 0 26.92 10a4.75 4.75 0 0 0-1.73 6.53zm-13.44 50a4.77 4.77 0 1 0 6.51 1.75 4.77 4.77 0 0 0-6.51-1.74zm74.05 9a4.76 4.76 0 1 0-2.38-.65 4.66 4.66 0 0 0 2.38.66zM16.54 25.16a4.76 4.76 0 1 0 1.74 6.51 4.76 4.76 0 0 0-1.74-6.51zm50 63.11a4.76 4.76 0 0 0 4.13 2.39A4.7 4.7 0 0 0 73 90a4.76 4.76 0 1 0-6.5-1.75z"></path></g><!----></svg>