<svg data-v-fde0c5aa="" xmlns="http://www.w3.org/2000/svg" viewBox="0 0 300 300" class="iconAbove"><!----><defs data-v-fde0c5aa=""><!----></defs><rect data-v-fde0c5aa="" fill="#FFFFFF" x="0" y="0" width="300px" height="300px" class="logo-background-square"></rect><defs data-v-fde0c5aa=""><!----></defs><g data-v-fde0c5aa="" id="03a6daf5-568b-41d9-906c-d437f6d76088" fill="#3B3A3A" transform="matrix(3.7856726680941235,0,0,3.7856726680941235,16.176470641327924,167.99097258672353)"><path d="M2.30 5.67L2.30 5.67Q2.30 6.19 2.56 6.59L2.56 6.59L2.56 6.59Q2.81 6.99 3.20 7.28L3.20 7.28L3.20 7.28Q3.58 7.57 4.24 7.98L4.24 7.98L4.24 7.98Q4.96 8.43 5.37 8.75L5.37 8.75L5.37 8.75Q5.78 9.07 6.07 9.54L6.07 9.54L6.07 9.54Q6.36 10.01 6.36 10.64L6.36 10.64L6.36 10.64Q6.36 11.35 5.99 11.91L5.99 11.91L5.99 11.91Q5.61 12.47 4.94 12.79L4.94 12.79L4.94 12.79Q4.26 13.10 3.39 13.10L3.39 13.10L3.39 13.10Q2.80 13.10 2.18 12.95L2.18 12.95L2.18 12.95Q1.55 12.80 1.23 12.57L1.23 12.57L1.23 12.57Q1.11 12.49 1.09 12.31L1.09 12.31L1.01 10.18L1.01 10.16L1.01 10.16Q1.01 10.11 1.08 10.10L1.08 10.10L1.08 10.10Q1.15 10.09 1.16 10.15L1.16 10.15L1.16 10.15Q1.62 11.31 2.22 12.05L2.22 12.05L2.22 12.05Q2.81 12.80 3.74 12.80L3.74 12.80L3.74 12.80Q4.34 12.80 4.75 12.47L4.75 12.47L4.75 12.47Q5.15 12.14 5.15 11.37L5.15 11.37L5.15 11.37Q5.15 10.75 4.88 10.29L4.88 10.29L4.88 10.29Q4.61 9.83 4.21 9.52L4.21 9.52L4.21 9.52Q3.81 9.21 3.12 8.76L3.12 8.76L3.12 8.76Q2.45 8.33 2.07 8.03L2.07 8.03L2.07 8.03Q1.69 7.73 1.43 7.29L1.43 7.29L1.43 7.29Q1.16 6.85 1.16 6.26L1.16 6.26L1.16 6.26Q1.16 5.53 1.57 5.03L1.57 5.03L1.57 5.03Q1.97 4.52 2.63 4.28L2.63 4.28L2.63 4.28Q3.28 4.03 3.99 4.03L3.99 4.03L3.99 4.03Q4.47 4.03 4.94 4.12L4.94 4.12L4.94 4.12Q5.42 4.21 5.74 4.35L5.74 4.35L5.74 4.35Q5.87 4.40 5.91 4.46L5.91 4.46L5.91 4.46Q5.95 4.52 5.95 4.62L5.95 4.62L5.99 6.52L5.99 6.52Q5.99 6.57 5.92 6.59L5.92 6.59L5.92 6.59Q5.84 6.61 5.82 6.55L5.82 6.55L5.82 6.55Q5.54 5.70 5.08 5.00L5.08 5.00L5.08 5.00Q4.61 4.31 3.67 4.31L3.67 4.31L3.67 4.31Q3.04 4.31 2.67 4.68L2.67 4.68L2.67 4.68Q2.30 5.04 2.30 5.67L2.30 5.67ZM12.39 12.07L12.42 12.05L12.42 12.05Q12.45 12.05 12.48 12.11L12.48 12.11L12.48 12.11Q12.52 12.17 12.49 12.19L12.49 12.19L12.49 12.19Q11.98 12.67 11.47 12.89L11.47 12.89L11.47 12.89Q10.95 13.10 10.33 13.10L10.33 13.10L10.33 13.10Q9.46 13.10 8.84 12.73L8.84 12.73L8.84 12.73Q8.22 12.36 7.89 11.74L7.89 11.74L7.89 11.74Q7.56 11.12 7.56 10.40L7.56 10.40L7.56 10.40Q7.56 9.58 7.97 8.89L7.97 8.89L7.97 8.89Q8.39 8.20 9.11 7.80L9.11 7.80L9.11 7.80Q9.83 7.41 10.70 7.41L10.70 7.41L10.70 7.41Q11.52 7.41 11.97 7.78L11.97 7.78L11.97 7.78Q12.42 8.15 12.42 8.79L12.42 8.79L12.42 8.79Q12.42 9.17 12.26 9.17L12.26 9.17L11.49 9.17L8.86 9.20L8.86 9.20Q8.82 9.49 8.82 9.83L8.82 9.83L8.82 9.83Q8.82 11.05 9.39 11.77L9.39 11.77L9.39 11.77Q9.95 12.49 10.96 12.49L10.96 12.49L10.96 12.49Q11.33 12.49 11.70 12.38L11.70 12.38L11.70 12.38Q12.08 12.28 12.39 12.07L12.39 12.07ZM10.19 7.69L10.19 7.69Q9.73 7.69 9.39 8.02L9.39 8.02L9.39 8.02Q9.06 8.36 8.92 8.95L8.92 8.95L11.10 8.90L11.10 8.90Q11.07 8.33 10.85 8.01L10.85 8.01L10.85 8.01Q10.63 7.69 10.19 7.69L10.19 7.69ZM16.17 13.10L16.17 13.10Q15.26 13.10 14.62 12.71L14.62 12.71L14.62 12.71Q13.99 12.31 13.68 11.67L13.68 11.67L13.68 11.67Q13.37 11.03 13.37 10.33L13.37 10.33L13.37 10.33Q13.37 9.45 13.85 8.79L13.85 8.79L13.85 8.79Q14.32 8.12 15.07 7.76L15.07 7.76L15.07 7.76Q15.82 7.41 16.59 7.41L16.59 7.41L16.59 7.41Q17.25 7.41 17.78 7.67L17.78 7.67L17.78 7.67Q18.31 7.94 18.31 8.39L18.31 8.39L18.31 8.39Q18.31 8.62 18.13 8.80L18.13 8.80L18.13 8.80Q17.95 8.97 17.63 8.97L17.63 8.97L17.63 8.97Q17.09 8.97 16.86 8.34L16.86 8.34L16.86 8.34Q16.72 7.99 16.56 7.85L16.56 7.85L16.56 7.85Q16.41 7.70 16.07 7.70L16.07 7.70L16.07 7.70Q15.41 7.70 15.03 8.29L15.03 8.29L15.03 8.29Q14.64 8.89 14.64 9.88L14.64 9.88L14.64 9.88Q14.64 11.05 15.18 11.77L15.18 11.77L15.18 11.77Q15.72 12.49 16.87 12.49L16.87 12.49L16.87 12.49Q17.26 12.49 17.57 12.39L17.57 12.39L17.57 12.39Q17.88 12.29 18.24 12.08L18.24 12.08L18.26 12.08L18.26 12.08Q18.30 12.08 18.33 12.12L18.33 12.12L18.33 12.12Q18.37 12.17 18.34 12.19L18.34 12.19L18.34 12.19Q17.82 12.66 17.32 12.88L17.32 12.88L17.32 12.88Q16.81 13.10 16.17 13.10L16.17 13.10ZM25.69 12.07L25.72 12.05L25.72 12.05Q25.76 12.05 25.79 12.12L25.79 12.12L25.79 12.12Q25.82 12.19 25.77 12.22L25.77 12.22L23.94 13.10L23.88 13.12L23.88 13.12Q23.74 13.12 23.63 12.80L23.63 12.80L23.63 12.80Q23.52 12.49 23.51 11.96L23.51 11.96L23.51 11.96Q22.53 13.09 21.43 13.09L21.43 13.09L21.43 13.09Q20.68 13.09 20.26 12.62L20.26 12.62L20.26 12.62Q19.84 12.15 19.84 11.34L19.84 11.34L19.84 9.25L19.84 9.25Q19.84 8.30 19.40 8.30L19.40 8.30L19.40 8.30Q19.26 8.30 19.01 8.41L19.01 8.41L19.00 8.41L19.00 8.41Q18.94 8.41 18.91 8.34L18.91 8.34L18.91 8.34Q18.89 8.27 18.93 8.25L18.93 8.25L20.71 7.42L20.76 7.41L20.76 7.41Q20.82 7.41 20.89 7.46L20.89 7.46L20.89 7.46Q20.96 7.52 20.96 7.56L20.96 7.56L20.96 10.74L20.96 10.74Q20.96 12.29 22.13 12.29L22.13 12.29L22.13 12.29Q22.48 12.29 22.85 12.12L22.85 12.12L22.85 12.12Q23.21 11.96 23.51 11.66L23.51 11.66L23.51 9.25L23.51 9.25Q23.51 8.76 23.40 8.53L23.40 8.53L23.40 8.53Q23.30 8.30 23.07 8.30L23.07 8.30L23.07 8.30Q22.95 8.30 22.68 8.41L22.68 8.41L22.67 8.41L22.67 8.41Q22.61 8.41 22.58 8.34L22.58 8.34L22.58 8.34Q22.55 8.26 22.61 8.25L22.61 8.25L24.37 7.42L24.37 7.42Q24.40 7.41 24.44 7.41L24.44 7.41L24.44 7.41Q24.50 7.41 24.57 7.46L24.57 7.46L24.57 7.46Q24.64 7.52 24.64 7.56L24.64 7.56L24.64 11.35L24.64 11.35Q24.64 11.84 24.74 12.04L24.74 12.04L24.74 12.04Q24.84 12.24 25.06 12.24L25.06 12.24L25.06 12.24Q25.23 12.24 25.69 12.07L25.69 12.07ZM29.88 7.39L29.88 7.39Q30.20 7.39 30.49 7.60L30.49 7.60L30.49 7.60Q30.79 7.81 30.79 8.11L30.79 8.11L30.79 8.11Q30.79 8.37 30.63 8.54L30.63 8.54L30.63 8.54Q30.46 8.71 30.18 8.71L30.18 8.71L30.18 8.71Q30.00 8.71 29.88 8.63L29.88 8.63L29.88 8.63Q29.76 8.55 29.64 8.41L29.64 8.41L29.64 8.41Q29.51 8.29 29.41 8.22L29.41 8.22L29.41 8.22Q29.32 8.16 29.18 8.16L29.18 8.16L29.18 8.16Q29.02 8.16 28.85 8.28L28.85 8.28L28.85 8.28Q28.67 8.40 28.31 8.78L28.31 8.78L28.31 11.80L28.31 11.80Q28.31 12.19 28.42 12.40L28.42 12.40L28.42 12.40Q28.53 12.60 28.80 12.68L28.80 12.68L28.80 12.68Q29.06 12.77 29.58 12.77L29.58 12.77L29.58 12.77Q29.64 12.77 29.64 12.85L29.64 12.85L29.64 12.85Q29.64 12.94 29.58 12.94L29.58 12.94L29.58 12.94Q29.12 12.94 28.84 12.92L28.84 12.92L27.73 12.91L26.92 12.92L26.92 12.92Q26.73 12.94 26.38 12.94L26.38 12.94L26.38 12.94Q26.33 12.94 26.33 12.85L26.33 12.85L26.33 12.85Q26.33 12.77 26.38 12.77L26.38 12.77L26.38 12.77Q26.85 12.77 27.01 12.57L27.01 12.57L27.01 12.57Q27.16 12.38 27.16 11.80L27.16 11.80L27.16 9.13L27.16 9.13Q27.16 8.68 27.05 8.47L27.05 8.47L27.05 8.47Q26.95 8.26 26.71 8.26L26.71 8.26L26.71 8.26Q26.50 8.26 26.01 8.47L26.01 8.47L26.00 8.47L26.00 8.47Q25.94 8.47 25.91 8.40L25.91 8.40L25.91 8.40Q25.89 8.33 25.93 8.32L25.93 8.32L27.76 7.42L27.76 7.42Q27.85 7.39 27.86 7.39L27.86 7.39L27.86 7.39Q28 7.39 28.14 7.69L28.14 7.69L28.14 7.69Q28.28 7.99 28.31 8.48L28.31 8.48L28.31 8.48Q28.85 7.87 29.22 7.63L29.22 7.63L29.22 7.63Q29.58 7.39 29.88 7.39L29.88 7.39ZM36.33 12.07L36.36 12.05L36.36 12.05Q36.39 12.05 36.42 12.11L36.42 12.11L36.42 12.11Q36.46 12.17 36.43 12.19L36.43 12.19L36.43 12.19Q35.92 12.67 35.41 12.89L35.41 12.89L35.41 12.89Q34.89 13.10 34.27 13.10L34.27 13.10L34.27 13.10Q33.40 13.10 32.78 12.73L32.78 12.73L32.78 12.73Q32.16 12.36 31.83 11.74L31.83 11.74L31.83 11.74Q31.50 11.12 31.50 10.40L31.50 10.40L31.50 10.40Q31.50 9.58 31.91 8.89L31.91 8.89L31.91 8.89Q32.33 8.20 33.05 7.80L33.05 7.80L33.05 7.80Q33.77 7.41 34.64 7.41L34.64 7.41L34.64 7.41Q35.46 7.41 35.91 7.78L35.91 7.78L35.91 7.78Q36.36 8.15 36.36 8.79L36.36 8.79L36.36 8.79Q36.36 9.17 36.20 9.17L36.20 9.17L35.43 9.17L32.80 9.20L32.80 9.20Q32.76 9.49 32.76 9.83L32.76 9.83L32.76 9.83Q32.76 11.05 33.33 11.77L33.33 11.77L33.33 11.77Q33.89 12.49 34.90 12.49L34.90 12.49L34.90 12.49Q35.27 12.49 35.64 12.38L35.64 12.38L35.64 12.38Q36.02 12.28 36.33 12.07L36.33 12.07ZM34.13 7.69L34.13 7.69Q33.67 7.69 33.33 8.02L33.33 8.02L33.33 8.02Q33.00 8.36 32.86 8.95L32.86 8.95L35.04 8.90L35.04 8.90Q35.01 8.33 34.79 8.01L34.79 8.01L34.79 8.01Q34.57 7.69 34.13 7.69L34.13 7.69ZM41.76 8.02L41.76 8.02Q42.91 8.15 43.60 8.79L43.60 8.79L43.60 8.79Q44.28 9.44 44.28 10.39L44.28 10.39L44.28 10.39Q44.28 11.12 43.88 11.71L43.88 11.71L43.88 11.71Q43.48 12.31 42.78 12.65L42.78 12.65L42.78 12.65Q42.07 12.99 41.20 12.99L41.20 12.99L41.20 12.99Q40.80 12.99 40.26 12.95L40.26 12.95L40.26 12.95Q40.08 12.94 39.80 12.92L39.80 12.92L39.80 12.92Q39.52 12.91 39.17 12.91L39.17 12.91L38.16 12.92L38.16 12.92Q37.90 12.94 37.44 12.94L37.44 12.94L37.44 12.94Q37.39 12.94 37.39 12.85L37.39 12.85L37.39 12.85Q37.39 12.77 37.44 12.77L37.44 12.77L37.44 12.77Q37.88 12.77 38.11 12.69L38.11 12.69L38.11 12.69Q38.33 12.61 38.42 12.42L38.42 12.42L38.42 12.42Q38.51 12.22 38.51 11.80L38.51 11.80L38.51 5.32L38.51 5.32Q38.51 4.91 38.42 4.71L38.42 4.71L38.42 4.71Q38.33 4.51 38.12 4.43L38.12 4.43L38.12 4.43Q37.90 4.35 37.45 4.35L37.45 4.35L37.45 4.35Q37.42 4.35 37.42 4.27L37.42 4.27L37.42 4.27Q37.42 4.19 37.45 4.19L37.45 4.19L38.18 4.20L38.18 4.20Q38.79 4.23 39.17 4.23L39.17 4.23L39.17 4.23Q39.56 4.23 40.00 4.19L40.00 4.19L40.00 4.19Q40.15 4.17 40.37 4.16L40.37 4.16L40.37 4.16Q40.59 4.14 40.87 4.14L40.87 4.14L40.87 4.14Q42.11 4.14 42.78 4.63L42.78 4.63L42.78 4.63Q43.44 5.11 43.44 5.96L43.44 5.96L43.44 5.96Q43.44 6.62 43.00 7.17L43.00 7.17L43.00 7.17Q42.56 7.71 41.76 8.02L41.76 8.02ZM40.63 4.42L40.63 4.42Q40.18 4.42 40.02 4.61L40.02 4.61L40.02 4.61Q39.86 4.79 39.86 5.35L39.86 5.35L39.86 8.01L40.45 8.02L40.45 8.02Q41.27 8.02 41.69 7.48L41.69 7.48L41.69 7.48Q42.11 6.94 42.11 6.09L42.11 6.09L42.11 6.09Q42.11 5.29 41.73 4.86L41.73 4.86L41.73 4.86Q41.36 4.42 40.63 4.42L40.63 4.42ZM40.98 12.67L40.98 12.67Q42.87 12.67 42.87 10.72L42.87 10.72L42.87 10.72Q42.87 9.66 42.31 9.02L42.31 9.02L42.31 9.02Q41.76 8.37 40.70 8.37L40.70 8.37L40.70 8.37Q40.19 8.37 39.86 8.40L39.86 8.40L39.86 11.80L39.86 11.80Q39.86 12.12 39.94 12.31L39.94 12.31L39.94 12.31Q40.03 12.49 40.26 12.58L40.26 12.58L40.26 12.58Q40.50 12.67 40.98 12.67L40.98 12.67ZM48.30 13.12L48.30 13.12Q47.46 13.12 46.82 12.72L46.82 12.72L46.82 12.72Q46.17 12.32 45.82 11.64L45.82 11.64L45.82 11.64Q45.47 10.96 45.47 10.16L45.47 10.16L45.47 10.16Q45.47 9.25 45.93 8.62L45.93 8.62L45.93 8.62Q46.38 7.98 47.09 7.67L47.09 7.67L47.09 7.67Q47.80 7.35 48.54 7.35L48.54 7.35L48.54 7.35Q49.39 7.35 50.03 7.76L50.03 7.76L50.03 7.76Q50.67 8.16 51.00 8.83L51.00 8.83L51.00 8.83Q51.34 9.49 51.34 10.25L51.34 10.25L51.34 10.25Q51.34 11.09 50.92 11.75L50.92 11.75L50.92 11.75Q50.51 12.40 49.81 12.76L49.81 12.76L49.81 12.76Q49.11 13.12 48.30 13.12L48.30 13.12ZM48.72 12.84L48.72 12.84Q49.34 12.84 49.66 12.29L49.66 12.29L49.66 12.29Q49.99 11.75 49.99 10.70L49.99 10.70L49.99 10.70Q49.99 9.76 49.73 9.06L49.73 9.06L49.73 9.06Q49.48 8.36 49.03 7.99L49.03 7.99L49.03 7.99Q48.59 7.63 48.08 7.63L48.08 7.63L48.08 7.63Q47.45 7.63 47.12 8.15L47.12 8.15L47.12 8.15Q46.80 8.67 46.80 9.67L46.80 9.67L46.80 9.67Q46.80 10.58 47.05 11.30L47.05 11.30L47.05 11.30Q47.29 12.03 47.73 12.43L47.73 12.43L47.73 12.43Q48.17 12.84 48.72 12.84L48.72 12.84ZM55.10 13.12L55.10 13.12Q54.26 13.12 53.62 12.72L53.62 12.72L53.62 12.72Q52.98 12.32 52.63 11.64L52.63 11.64L52.63 11.64Q52.28 10.96 52.28 10.16L52.28 10.16L52.28 10.16Q52.28 9.25 52.73 8.62L52.73 8.62L52.73 8.62Q53.19 7.98 53.89 7.67L53.89 7.67L53.89 7.67Q54.60 7.35 55.34 7.35L55.34 7.35L55.34 7.35Q56.20 7.35 56.83 7.76L56.83 7.76L56.83 7.76Q57.47 8.16 57.81 8.83L57.81 8.83L57.81 8.83Q58.14 9.49 58.14 10.25L58.14 10.25L58.14 10.25Q58.14 11.09 57.73 11.75L57.73 11.75L57.73 11.75Q57.32 12.40 56.62 12.76L56.62 12.76L56.62 12.76Q55.92 13.12 55.10 13.12L55.10 13.12ZM55.52 12.84L55.52 12.84Q56.14 12.84 56.47 12.29L56.47 12.29L56.47 12.29Q56.80 11.75 56.80 10.70L56.80 10.70L56.80 10.70Q56.80 9.76 56.54 9.06L56.54 9.06L56.54 9.06Q56.28 8.36 55.84 7.99L55.84 7.99L55.84 7.99Q55.40 7.63 54.88 7.63L54.88 7.63L54.88 7.63Q54.25 7.63 53.93 8.15L53.93 8.15L53.93 8.15Q53.61 8.67 53.61 9.67L53.61 9.67L53.61 9.67Q53.61 10.58 53.85 11.30L53.85 11.30L53.85 11.30Q54.10 12.03 54.54 12.43L54.54 12.43L54.54 12.43Q54.98 12.84 55.52 12.84L55.52 12.84ZM65.51 12.77L65.51 12.77Q65.55 12.77 65.55 12.85L65.55 12.85L65.55 12.85Q65.55 12.94 65.51 12.94L65.51 12.94L65.51 12.94Q65.16 12.94 64.95 12.92L64.95 12.92L64.15 12.91L63.10 12.92L63.10 12.92Q62.86 12.94 62.45 12.94L62.45 12.94L62.45 12.94Q62.43 12.94 62.43 12.85L62.43 12.85L62.43 12.85Q62.43 12.77 62.45 12.77L62.45 12.77L62.45 12.77Q63.03 12.77 63.03 12.47L63.03 12.47L63.03 12.47Q63.03 12.35 62.92 12.19L62.92 12.19L61.28 10.04L60.86 10.40L60.86 11.80L60.86 11.80Q60.86 12.38 61.02 12.57L61.02 12.57L61.02 12.57Q61.18 12.77 61.66 12.77L61.66 12.77L61.66 12.77Q61.71 12.77 61.71 12.85L61.71 12.85L61.71 12.85Q61.71 12.94 61.66 12.94L61.66 12.94L61.66 12.94Q61.31 12.94 61.10 12.92L61.10 12.92L60.30 12.91L59.50 12.92L59.50 12.92Q59.29 12.94 58.94 12.94L58.94 12.94L58.94 12.94Q58.90 12.94 58.90 12.85L58.90 12.85L58.90 12.85Q58.90 12.77 58.94 12.77L58.94 12.77L58.94 12.77Q59.40 12.77 59.57 12.56L59.57 12.56L59.57 12.56Q59.74 12.36 59.74 11.80L59.74 11.80L59.74 4.65L59.74 4.65Q59.74 4.16 59.64 3.94L59.64 3.94L59.64 3.94Q59.54 3.72 59.32 3.72L59.32 3.72L59.32 3.72Q59.11 3.72 58.74 3.89L58.74 3.89L58.73 3.89L58.73 3.89Q58.69 3.89 58.65 3.81L58.65 3.81L58.65 3.81Q58.62 3.74 58.66 3.72L58.66 3.72L60.61 2.80L60.68 2.79L60.68 2.79Q60.73 2.79 60.80 2.84L60.80 2.84L60.80 2.84Q60.86 2.90 60.86 2.94L60.86 2.94L60.86 10.11L62.36 8.76L62.36 8.76Q62.75 8.43 62.75 8.11L62.75 8.11L62.75 8.11Q62.75 7.92 62.59 7.81L62.59 7.81L62.59 7.81Q62.43 7.70 62.13 7.70L62.13 7.70L62.13 7.70Q62.09 7.70 62.09 7.62L62.09 7.62L62.09 7.62Q62.09 7.53 62.13 7.53L62.13 7.53L62.13 7.53Q62.52 7.53 62.75 7.55L62.75 7.55L63.81 7.56L64.81 7.55L64.81 7.55Q65.00 7.53 65.34 7.53L65.34 7.53L65.34 7.53Q65.38 7.53 65.38 7.62L65.38 7.62L65.38 7.62Q65.38 7.70 65.34 7.70L65.34 7.70L65.34 7.70Q64.76 7.70 64.04 7.99L64.04 7.99L64.04 7.99Q63.31 8.27 62.69 8.82L62.69 8.82L62.09 9.34L63.95 11.80L63.95 11.80Q64.34 12.32 64.72 12.54L64.72 12.54L64.72 12.54Q65.10 12.77 65.51 12.77L65.51 12.77ZM67.06 8.26L67.06 8.26Q67.06 8.69 67.36 8.99L67.36 8.99L67.36 8.99Q67.66 9.28 68.24 9.60L68.24 9.60L68.24 9.60Q68.74 9.88 69.01 10.07L69.01 10.07L69.01 10.07Q69.29 10.25 69.49 10.56L69.49 10.56L69.49 10.56Q69.69 10.86 69.69 11.30L69.69 11.30L69.69 11.30Q69.69 11.77 69.45 12.18L69.45 12.18L69.45 12.18Q69.22 12.59 68.75 12.84L68.75 12.84L68.75 12.84Q68.28 13.09 67.63 13.09L67.63 13.09L67.63 13.09Q66.86 13.09 66.22 12.70L66.22 12.70L66.22 12.70Q66.14 12.61 66.14 12.53L66.14 12.53L66.11 11.24L66.11 11.24Q66.11 11.20 66.19 11.19L66.19 11.19L66.19 11.19Q66.26 11.19 66.28 11.21L66.28 11.21L66.28 11.21Q66.51 11.91 67.00 12.36L67.00 12.36L67.00 12.36Q67.48 12.81 68.03 12.81L68.03 12.81L68.03 12.81Q68.38 12.81 68.57 12.63L68.57 12.63L68.57 12.63Q68.77 12.45 68.77 12.08L68.77 12.08L68.77 12.08Q68.77 11.55 68.46 11.23L68.46 11.23L68.46 11.23Q68.15 10.92 67.56 10.61L67.56 10.61L67.56 10.61Q67.09 10.36 66.82 10.19L66.82 10.19L66.82 10.19Q66.56 10.01 66.37 9.71L66.37 9.71L66.37 9.71Q66.18 9.41 66.18 8.96L66.18 8.96L66.18 8.96Q66.18 8.16 66.76 7.77L66.76 7.77L66.76 7.77Q67.34 7.38 68.17 7.38L68.17 7.38L68.17 7.38Q68.71 7.38 69.29 7.59L69.29 7.59L69.29 7.59Q69.41 7.64 69.41 7.74L69.41 7.74L69.41 7.74Q69.41 8.06 69.40 8.25L69.40 8.25L69.38 8.92L69.38 8.92Q69.38 8.96 69.30 8.96L69.30 8.96L69.30 8.96Q69.22 8.96 69.22 8.92L69.22 8.92L69.22 8.92Q69.22 8.64 68.99 8.34L68.99 8.34L68.99 8.34Q68.77 8.04 68.42 7.84L68.42 7.84L68.42 7.84Q68.07 7.64 67.70 7.64L67.70 7.64L67.70 7.64Q67.06 7.64 67.06 8.26L67.06 8.26Z"></path></g><defs data-v-fde0c5aa=""><linearGradient data-v-fde0c5aa="" gradientTransform="rotate(25)" id="9a36cbd3-9fd8-453f-b6c7-d2a48e8db4c8" x1="0%" y1="0%" x2="100%" y2="0%"><stop data-v-fde0c5aa="" offset="0%" stop-color="#29FF77" stop-opacity="1"></stop><stop data-v-fde0c5aa="" offset="100%" stop-color="#5DA469" stop-opacity="1"></stop></linearGradient></defs><g data-v-fde0c5aa="" id="b0096d36-10e6-42de-b0ba-70d90eb77f6b" stroke="none" fill="url(#9a36cbd3-9fd8-453f-b6c7-d2a48e8db4c8)" transform="matrix(0.7821199674517678,0,0,0.7821199674517678,110.8940016274116,82.34100244111741)"><path d="M19.207 45.567v-4.28a.781.781 0 0 1 1.563 0v4.28a.78.78 0 1 1-1.563 0zm-6.587 4.784a.78.78 0 0 0-.781.781v4.279a.78.78 0 1 0 1.562 0v-4.279a.78.78 0 0 0-.781-.781zm11.318-4.002c.432 0 .782-.35.782-.781v-4.28a.781.781 0 0 0-1.563 0v4.28c0 .431.35.781.781.781zm15.619 0c.431 0 .781-.35.781-.781v-4.28a.78.78 0 1 0-1.563 0v4.28c0 .431.35.781.782.781zm-10.983 0a.78.78 0 0 0 .781-.781v-4.28a.78.78 0 1 0-1.562 0v4.28c0 .431.35.781.781.781zm4.978 0c.432 0 .782-.35.782-.781v-4.28a.781.781 0 0 0-1.563 0v4.28c0 .431.35.781.781.781zm9.62 4.002a.78.78 0 0 0-.781.781v4.279a.78.78 0 1 0 1.563 0v-4.279a.781.781 0 0 0-.782-.781zm-10.983 0a.78.78 0 0 0-.781.781v4.279a.78.78 0 1 0 1.562 0v-4.279a.78.78 0 0 0-.781-.781zm6.005 0a.781.781 0 0 0-.781.781v4.279a.78.78 0 1 0 1.563 0v-4.279a.782.782 0 0 0-.782-.781zm-21.623 0a.782.782 0 0 0-.782.781v4.279a.781.781 0 0 0 1.563 0v-4.279a.78.78 0 0 0-.781-.781zm9.613 0a.78.78 0 0 0-.781.781v4.279a.78.78 0 1 0 1.563 0v-4.279a.782.782 0 0 0-.782-.781zm19.378-4.002a.78.78 0 0 0 .781-.781v-4.28a.78.78 0 1 0-1.563 0v4.28c0 .431.35.781.782.781zm-24.356 4.002a.782.782 0 0 0-.782.781v4.279a.781.781 0 0 0 1.563 0v-4.279a.78.78 0 0 0-.781-.781zm6.206-19.688a.781.781 0 0 0-.781.781v4.28a.78.78 0 1 0 1.563 0v-4.28a.784.784 0 0 0-.782-.781zm6.005 0a.782.782 0 0 0-.782.781v4.28a.781.781 0 0 0 1.563 0v-4.28c0-.43-.35-.781-.781-.781zm-10.983 0a.781.781 0 0 0-.781.781v4.28a.78.78 0 1 0 1.562 0v-4.28a.781.781 0 0 0-.781-.781zM50.54 46.349c.432 0 .782-.35.782-.781v-4.28a.781.781 0 0 0-1.563 0v4.28a.78.78 0 0 0 .781.781zM13.848 30.663a.782.782 0 0 0-.782.781v4.28a.781.781 0 0 0 1.563 0v-4.28c0-.43-.35-.781-.781-.781zm3.951 0a.781.781 0 0 0-.781.781v4.28a.78.78 0 1 0 1.562 0v-4.28c0-.43-.35-.781-.781-.781zm37.377 15.686a.78.78 0 0 0 .781-.781v-4.28a.78.78 0 1 0-1.562 0v4.28a.78.78 0 0 0 .781.781zM44.4 30.663a.781.781 0 0 0-.781.781v4.28a.78.78 0 1 0 1.563 0v-4.28c0-.43-.35-.781-.782-.781zm14.726 15.686a.78.78 0 0 0 .781-.781v-4.28a.78.78 0 1 0-1.562 0v4.28a.78.78 0 0 0 .781.781zm-6.14-15.686a.781.781 0 0 0-.781.781v4.28a.78.78 0 1 0 1.562 0v-4.28a.78.78 0 0 0-.781-.781zm-3.95 0a.782.782 0 0 0-.782.781v4.28a.781.781 0 0 0 1.563 0v-4.28c0-.43-.35-.781-.781-.781zm-9.614 0a.782.782 0 0 0-.781.781v4.28a.78.78 0 1 0 1.563 0v-4.28c0-.43-.35-.781-.782-.781zm2.281 45.254c.431 0 .781-.35.781-.781v-4.28a.78.78 0 1 0-1.563 0v4.28c0 .431.35.781.782.781zm-6.005 0c.431 0 .781-.35.781-.781v-4.28a.78.78 0 1 0-1.563 0v4.28c0 .431.35.781.782.781zm-11.324-9.883c.432 0 .782-.35.782-.781v-4.28a.781.781 0 0 0-1.563 0v4.28a.78.78 0 0 0 .781.781zm26.942 9.883a.78.78 0 0 0 .781-.781v-4.28a.78.78 0 1 0-1.563 0v4.28c.001.431.35.781.782.781zm3.951 0a.78.78 0 0 0 .781-.781v-4.28a.78.78 0 1 0-1.562 0v4.28a.78.78 0 0 0 .781.781zm-8.586 0c.431 0 .781-.35.781-.781v-4.28a.78.78 0 1 0-1.563 0v4.28c0 .431.35.781.782.781zM100 19.348v61.306C100 91.338 91.338 100 80.652 100H19.348C8.662 100 0 91.338 0 80.653V19.348C0 8.662 8.662 0 19.348 0h61.305C91.338 0 100 8.662 100 19.348zM10.853 37.352h44.72v-7.944h-44.72v7.944zm6.14 1.897v7.944h44.721v-7.944H16.993zM9.625 57.038h44.721v-7.946H9.625v7.946zm11.754 1.897v7.944H66.1v-7.944H21.379zm36.475 9.883H13.133v7.943h44.721v-7.943zm32.39-19.428c0-14.843-12.032-26.874-26.874-26.874a26.746 26.746 0 0 0-15.679 5.054H57.411v9.843h6.141v11.619h-7.369v8.067H67.938v11.619H59.693v7.29c1.203.164 2.43.257 3.678.257 14.841-.001 26.873-12.034 26.873-26.875zM29.692 75.917c.432 0 .782-.35.782-.781v-4.28a.781.781 0 0 0-1.563 0v4.28c0 .431.35.781.781.781zm-13.564 0c.432 0 .782-.35.782-.781v-4.28a.781.781 0 0 0-1.563 0v4.28c0 .431.35.781.781.781zm31.679-25.566a.782.782 0 0 0-.782.781v4.279a.781.781 0 0 0 1.563 0v-4.279a.78.78 0 0 0-.781-.781zM20.079 75.917a.78.78 0 0 0 .781-.781v-4.28a.78.78 0 1 0-1.562 0v4.28a.78.78 0 0 0 .781.781zm4.635 0c.432 0 .782-.35.782-.781v-4.28a.781.781 0 0 0-1.563 0v4.28c0 .431.35.781.781.781zm30.212-9.883a.78.78 0 0 0 .781-.781v-4.28a.78.78 0 1 0-1.562 0v4.28a.78.78 0 0 0 .781.781zm-26.602 0a.78.78 0 0 0 .781-.781v-4.28a.78.78 0 1 0-1.562 0v4.28c0 .432.35.781.781.781zm21.623 0c.432 0 .782-.35.782-.781v-4.28a.781.781 0 0 0-1.563 0v4.28c0 .432.35.781.781.781zm13.565 0a.78.78 0 0 0 .781-.781v-4.28a.78.78 0 1 0-1.562 0v4.28a.78.78 0 0 0 .781.781zM51.758 50.351a.78.78 0 0 0-.781.781v4.279a.78.78 0 1 0 1.562 0v-4.279a.78.78 0 0 0-.781-.781zm7.803 15.683c.433 0 .782-.35.782-.781v-4.28a.781.781 0 0 0-1.563 0v4.28a.78.78 0 0 0 .781.781zm-15.619 0c.432 0 .782-.35.782-.781v-4.28a.781.781 0 0 0-1.563 0v4.28c0 .432.35.781.781.781zm-10.983 0c.432 0 .782-.35.782-.781v-4.28a.781.781 0 0 0-1.563 0v4.28c0 .432.35.781.781.781zm4.979 0c.431 0 .781-.35.781-.781v-4.28a.78.78 0 1 0-1.563 0v4.28c0 .432.35.781.782.781z"></path></g><!----></svg>