<svg data-v-fde0c5aa="" xmlns="http://www.w3.org/2000/svg" viewBox="0 0 300 300" class="iconLeft"><!----><defs data-v-fde0c5aa=""><!----></defs><rect data-v-fde0c5aa="" fill="#FFFFFF" x="0" y="0" width="300px" height="300px" class="logo-background-square"></rect><defs data-v-fde0c5aa=""><!----></defs><g data-v-fde0c5aa="" id="5828564e-7406-45b2-ad18-e0cbba8fa66b" fill="#202A4F" transform="matrix(3.1858408529217277,0,0,3.1858408529217277,101.98230292378067,126.69557397858229)"><path d="M3.53 12.29L0.06 2.69L2.25 2.69L4.06 7.95L4.06 7.95Q4.23 8.46 4.42 9.08L4.42 9.08L4.42 9.08Q4.62 9.70 4.69 9.94L4.69 9.94L4.76 9.94L4.76 9.94Q4.83 9.70 5.04 8.97L5.04 8.97L5.04 8.97Q5.25 8.25 5.36 7.95L5.36 7.95L7.15 2.69L9.27 2.69L5.80 12.29L3.53 12.29ZM13.37 12.46L13.37 12.46Q11.59 12.46 10.72 11.52L10.72 11.52L10.72 11.52Q9.84 10.58 9.84 8.61L9.84 8.61L9.84 8.61Q9.84 6.64 10.72 5.70L10.72 5.70L10.72 5.70Q11.59 4.76 13.37 4.76L13.37 4.76L13.37 4.76Q15.01 4.76 15.82 5.71L15.82 5.71L15.82 5.71Q16.63 6.65 16.63 8.61L16.63 8.61L16.63 9.06L11.79 9.06L11.79 9.06Q11.82 10.04 12.18 10.51L12.18 10.51L12.18 10.51Q12.54 10.98 13.40 10.98L13.40 10.98L13.40 10.98Q14 10.98 14.37 10.64L14.37 10.64L14.37 10.64Q14.74 10.30 14.74 9.69L14.74 9.69L16.63 9.69L16.63 9.69Q16.63 11.07 15.74 11.77L15.74 11.77L15.74 11.77Q14.84 12.46 13.37 12.46L13.37 12.46ZM11.82 7.78L14.64 7.78L14.64 7.78Q14.64 6.26 13.37 6.26L13.37 6.26L13.37 6.26Q12.64 6.26 12.27 6.64L12.27 6.64L12.27 6.64Q11.90 7.01 11.82 7.78L11.82 7.78ZM18.12 12.29L18.12 4.93L19.75 4.93L19.91 6.12L20.01 6.12L20.01 6.12Q20.24 5.49 20.62 5.12L20.62 5.12L20.62 5.12Q21 4.76 21.62 4.76L21.62 4.76L21.62 4.76Q21.88 4.76 22.09 4.81L22.09 4.81L22.09 4.81Q22.29 4.86 22.34 4.89L22.34 4.89L22.34 6.68L21.81 6.68L21.81 6.68Q20.87 6.68 20.45 7.19L20.45 7.19L20.45 7.19Q20.03 7.70 20.03 8.74L20.03 8.74L20.03 12.29L18.12 12.29ZM25.54 12.46L25.54 12.46Q24.50 12.46 24.05 11.90L24.05 11.90L24.05 11.90Q23.60 11.34 23.60 10.49L23.60 10.49L23.60 6.50L22.72 6.50L22.72 4.93L23.65 4.93L23.97 2.86L25.52 2.86L25.52 4.93L26.80 4.93L26.80 6.50L25.52 6.50L25.52 10.29L25.52 10.29Q25.52 10.89 26.12 10.89L26.12 10.89L26.80 10.89L26.80 12.24L26.80 12.24Q26.56 12.32 26.20 12.39L26.20 12.39L26.20 12.39Q25.84 12.46 25.54 12.46L25.54 12.46ZM28.22 3.91L28.22 2.17L30.14 2.17L30.14 3.91L28.22 3.91ZM28.22 12.29L28.22 4.93L30.14 4.93L30.14 12.29L28.22 12.29ZM35.17 12.46L35.17 12.46Q33.40 12.46 32.53 11.52L32.53 11.52L32.53 11.52Q31.65 10.58 31.65 8.61L31.65 8.61L31.65 8.61Q31.65 6.65 32.53 5.71L32.53 5.71L32.53 5.71Q33.40 4.76 35.17 4.76L35.17 4.76L35.17 4.76Q36.64 4.76 37.51 5.51L37.51 5.51L37.51 5.51Q38.39 6.26 38.39 7.70L38.39 7.70L36.46 7.70L36.46 7.70Q36.46 7.03 36.11 6.66L36.11 6.66L36.11 6.66Q35.76 6.30 35.13 6.30L35.13 6.30L35.13 6.30Q34.34 6.30 33.97 6.85L33.97 6.85L33.97 6.85Q33.60 7.41 33.60 8.50L33.60 8.50L33.60 8.72L33.60 8.72Q33.60 9.81 33.98 10.37L33.98 10.37L33.98 10.37Q34.37 10.92 35.22 10.92L35.22 10.92L35.22 10.92Q35.83 10.92 36.18 10.55L36.18 10.55L36.18 10.55Q36.54 10.18 36.54 9.52L36.54 9.52L38.39 9.52L38.39 9.52Q38.39 10.96 37.52 11.71L37.52 11.71L37.52 11.71Q36.65 12.46 35.17 12.46L35.17 12.46ZM41.59 12.46L41.59 12.46Q40.74 12.46 40.03 12.01L40.03 12.01L40.03 12.01Q39.31 11.56 39.31 10.39L39.31 10.39L39.31 10.39Q39.31 8.97 40.47 8.38L40.47 8.38L40.47 8.38Q41.64 7.78 43.76 7.78L43.76 7.78L43.76 7.27L43.76 7.27Q43.76 6.78 43.55 6.51L43.55 6.51L43.55 6.51Q43.33 6.24 42.73 6.24L42.73 6.24L42.73 6.24Q42.08 6.24 41.81 6.44L41.81 6.44L41.81 6.44Q41.54 6.64 41.54 6.90L41.54 6.90L41.54 7.11L39.69 7.11L39.69 7.11Q39.68 7.03 39.68 6.80L39.68 6.80L39.68 6.80Q39.68 5.88 40.49 5.32L40.49 5.32L40.49 5.32Q41.31 4.76 42.67 4.76L42.67 4.76L42.67 4.76Q44.18 4.76 44.93 5.38L44.93 5.38L44.93 5.38Q45.68 5.99 45.68 7.15L45.68 7.15L45.68 10.40L45.68 10.40Q45.68 10.65 45.82 10.77L45.82 10.77L45.82 10.77Q45.96 10.89 46.17 10.89L46.17 10.89L46.56 10.89L46.56 12.24L46.56 12.24Q46.12 12.46 45.46 12.46L45.46 12.46L45.46 12.46Q44.88 12.46 44.50 12.21L44.50 12.21L44.50 12.21Q44.11 11.96 43.97 11.49L43.97 11.49L43.89 11.49L43.89 11.49Q43.48 11.97 42.96 12.21L42.96 12.21L42.96 12.21Q42.43 12.46 41.59 12.46L41.59 12.46ZM42.20 10.95L42.20 10.95Q43.01 10.95 43.39 10.49L43.39 10.49L43.39 10.49Q43.76 10.04 43.76 9.28L43.76 9.28L43.76 9.06L43.76 9.06Q41.26 9.06 41.26 10.18L41.26 10.18L41.26 10.18Q41.26 10.53 41.49 10.74L41.49 10.74L41.49 10.74Q41.72 10.95 42.20 10.95L42.20 10.95ZM47.68 12.29L47.68 2.17L49.60 2.17L49.60 12.29L47.68 12.29Z"></path></g><defs data-v-fde0c5aa=""><!----></defs><g data-v-fde0c5aa="" id="1bb3cf45-d1cd-41c7-be0f-85ae1dc266fe" stroke="none" fill="#395ECA" transform="matrix(0.9106195070842888,0,0,0.9106195070842888,35.44690246457856,120.86017577330276)"><path d="M58 33a1 1 0 1 0 0-2h-9v-2h9a1 1 0 1 0 0-2h-9v-3a1 1 0 0 0-1-1h-3v-3a1 1 0 0 0-1-1h-3v-3a1 1 0 0 0-1-1h-3V6a1 1 0 1 0-2 0v9h-2V6a1 1 0 0 0-2 0v9h-2V6a1 1 0 0 0-2 0v9h-3a1 1 0 0 0-1 1v3h-3a1 1 0 0 0-1 1v3h-3a1 1 0 0 0-1 1v3H6a1 1 0 0 0 0 2h9v2H6a1 1 0 0 0 0 2h9v2H6a1 1 0 1 0 0 2h9v3a1 1 0 0 0 1 1h3v3a1 1 0 0 0 1 1h3v3a1 1 0 0 0 1 1h3v9a1 1 0 1 0 2 0v-9h2v9a1 1 0 1 0 2 0v-9h2v9a1 1 0 1 0 2 0v-9h3a1 1 0 0 0 1-1v-3h3a1 1 0 0 0 1-1v-3h3a1 1 0 0 0 1-1v-3h9a1 1 0 1 0 0-2h-9v-2h9z"></path></g><!----></svg>