<svg data-v-fde0c5aa="" xmlns="http://www.w3.org/2000/svg" viewBox="0 0 300 300" class="iconLeft"><!----><defs data-v-fde0c5aa=""><!----></defs><rect data-v-fde0c5aa="" fill="#FFFFFF" x="0" y="0" width="300px" height="300px" class="logo-background-square"></rect><defs data-v-fde0c5aa=""><!----></defs><g data-v-fde0c5aa="" id="54d659f6-4dee-4ad5-bef4-ad821706a0fc" fill="#190000" transform="matrix(3.919526857246756,0,0,3.919526857246756,101.84710324817789,116.1548856250538)"><path d="M5.92 5.12L5.92 13.64L3.51 13.64L3.51 5.12L0.40 5.12L0.66 3.63L9.06 3.63L8.80 5.12L5.92 5.12ZM13.13 3.63L13.13 13.64L10.71 13.64L10.71 3.63L13.13 3.63ZM20.12 13.64L17.19 13.64L13.73 8.59L17.52 3.63L19.80 3.63L16.05 8.05L20.12 13.64ZM27.98 13.64L27.32 11.33L23.92 11.33L23.27 13.64L21.25 13.64L24.44 3.63L27.35 3.63L30.53 13.64L27.98 13.64ZM24.29 9.94L26.95 9.94L26.02 6.64L25.68 5.14L25.55 5.14L25.21 6.64L24.29 9.94ZM40.35 8.66L40.35 13.08L40.35 13.08Q39.37 13.45 38.48 13.62L38.48 13.62L38.48 13.62Q37.58 13.78 36.72 13.78L36.72 13.78L36.72 13.78Q35.40 13.78 34.43 13.44L34.43 13.44L34.43 13.44Q33.45 13.10 32.80 12.47L32.80 12.47L32.80 12.47Q32.15 11.85 31.82 10.97L31.82 10.97L31.82 10.97Q31.50 10.10 31.50 9.03L31.50 9.03L31.50 9.03Q31.50 8.12 31.72 7.36L31.72 7.36L31.72 7.36Q31.94 6.60 32.34 5.98L32.34 5.98L32.34 5.98Q32.73 5.37 33.28 4.90L33.28 4.90L33.28 4.90Q33.82 4.43 34.47 4.12L34.47 4.12L34.47 4.12Q35.12 3.81 35.84 3.65L35.84 3.65L35.84 3.65Q36.57 3.49 37.33 3.49L37.33 3.49L37.33 3.49Q37.58 3.49 37.90 3.51L37.90 3.51L37.90 3.51Q38.22 3.53 38.58 3.57L38.58 3.57L38.58 3.57Q38.94 3.61 39.31 3.68L39.31 3.68L39.31 3.68Q39.68 3.75 40.03 3.84L40.03 3.84L39.68 5.46L39.55 5.52L39.55 5.52Q39.23 5.37 38.92 5.26L38.92 5.26L38.92 5.26Q38.60 5.16 38.31 5.10L38.31 5.10L38.31 5.10Q38.01 5.04 37.74 5.01L37.74 5.01L37.74 5.01Q37.47 4.98 37.25 4.98L37.25 4.98L37.25 4.98Q36.50 4.98 35.90 5.24L35.90 5.24L35.90 5.24Q35.30 5.49 34.87 5.96L34.87 5.96L34.87 5.96Q34.45 6.43 34.22 7.10L34.22 7.10L34.22 7.10Q33.99 7.77 33.99 8.59L33.99 8.59L33.99 8.59Q33.99 9.39 34.20 10.06L34.20 10.06L34.20 10.06Q34.41 10.73 34.80 11.23L34.80 11.23L34.80 11.23Q35.20 11.73 35.77 12.01L35.77 12.01L35.77 12.01Q36.33 12.29 37.04 12.29L37.04 12.29L37.04 12.29Q37.17 12.29 37.32 12.28L37.32 12.28L37.32 12.28Q37.47 12.27 37.64 12.25L37.64 12.25L37.64 12.25Q37.80 12.24 37.95 12.21L37.95 12.21L37.95 12.21Q38.10 12.17 38.23 12.13L38.23 12.13L38.23 8.66L40.35 8.66Z"></path></g><defs data-v-fde0c5aa=""><!----></defs><g data-v-fde0c5aa="" id="f701f2ff-b5cc-487f-a8cb-4f2a7940fefa" stroke="none" fill="#D1793F" transform="matrix(0.6721988535258506,0,0,0.6721988535258506,31.597514330926867,116.39005732370747)"><path d="M81.944 16.668C74.999 16.668 62.5 15.001 50 5 40 15 26.667 16.668 18.889 16.668c-3.889 0-6.389-.418-6.389-.418v21.475C12.5 82.725 50 95 50 95s37.5-12.275 37.5-57.275V16.25s-2.083.418-5.556.418zM45.313 65L29.375 48.125l4.688-5.625 11.25 7.969L68.75 33.125l4.219 3.75L45.313 65z"></path></g><!----></svg>